<svg width="13" height="12" viewBox="0 0 13 12" fill="none" xmlns="http://www.w3.org/2000/svg">
<path d="M10.6479 4.89793L6.89795 8.64793C6.84569 8.70037 6.78359 8.74198 6.71522 8.77037C6.64685 8.79876 6.57354 8.81337 6.49951 8.81337C6.42548 8.81337 6.35217 8.79876 6.2838 8.77037C6.21543 8.74198 6.15333 8.70037 6.10107 8.64793L2.35107 4.89793C2.2454 4.79226 2.18604 4.64893 2.18604 4.49949C2.18604 4.35005 2.2454 4.20673 2.35107 4.10105C2.45675 3.99538 2.60007 3.93602 2.74951 3.93602C2.89895 3.93602 3.04228 3.99538 3.14795 4.10105L6.49998 7.45308L9.85201 4.10059C9.95768 3.99491 10.101 3.93555 10.2504 3.93555C10.3999 3.93555 10.5432 3.99491 10.6489 4.10059C10.7546 4.20626 10.8139 4.34958 10.8139 4.49902C10.8139 4.64847 10.7546 4.79179 10.6489 4.89746L10.6479 4.89793Z" fill="#808080"/>
</svg>
