<svg width="18" height="17" viewBox="0 0 18 17" fill="none" xmlns="http://www.w3.org/2000/svg">
<path d="M8.77142 1.05923C8.97898 0.652107 9.08276 0.448543 9.22365 0.383505C9.34623 0.326918 9.48864 0.326918 9.61122 0.383505C9.75211 0.448543 9.85589 0.652107 10.0634 1.05923L12.0326 4.92176C12.0939 5.04195 12.1245 5.10205 12.1693 5.14871C12.209 5.19002 12.2565 5.22349 12.3093 5.24727C12.369 5.27413 12.4375 5.28382 12.5744 5.30321L16.9792 5.92656C17.443 5.9922 17.6749 6.02502 17.7823 6.13471C17.8757 6.23015 17.9196 6.36129 17.9018 6.49162C17.8814 6.64141 17.7135 6.79975 17.3777 7.11643L14.1915 10.1211C14.0922 10.2147 14.0426 10.2616 14.0105 10.3173C13.9821 10.3666 13.9639 10.4208 13.9569 10.4769C13.949 10.5402 13.9607 10.6063 13.9842 10.7386L14.7359 14.9825C14.8152 15.4302 14.8549 15.654 14.7804 15.7868C14.7155 15.9023 14.6003 15.9834 14.4668 16.0073C14.3133 16.0349 14.1057 15.9292 13.6905 15.7178L9.75276 13.7128C9.63007 13.6503 9.56872 13.6191 9.50409 13.6068C9.44687 13.596 9.38801 13.596 9.33078 13.6068C9.26615 13.6191 9.20481 13.6503 9.08211 13.7128L5.14433 15.7178C4.72917 15.9292 4.5216 16.0349 4.36811 16.0073C4.23457 15.9834 4.11934 15.9023 4.05451 15.7868C3.98001 15.654 4.01965 15.4302 4.09894 14.9825L4.85072 10.7386C4.87416 10.6063 4.88587 10.5402 4.87794 10.4769C4.87092 10.4208 4.85272 10.3666 4.82435 10.3173C4.79231 10.2616 4.74265 10.2147 4.64332 10.1211L1.45722 7.11643C1.12141 6.79975 0.95351 6.64141 0.933078 6.49162C0.915302 6.36129 0.959218 6.23015 1.0526 6.13471C1.15993 6.02502 1.39185 5.9922 1.85569 5.92656L6.26043 5.30321C6.39742 5.28382 6.46591 5.27413 6.52556 5.24727C6.57837 5.22349 6.62592 5.19002 6.66556 5.14871C6.71034 5.10205 6.74097 5.04195 6.80225 4.92176L8.77142 1.05923Z" fill="#E6E6E6"/>
</svg>
