<svg width="24" height="24" viewBox="0 0 24 24" fill="none" xmlns="http://www.w3.org/2000/svg">
<path d="M23.5398 6.31963C23.4546 6.11397 23.3104 5.93819 23.1253 5.81453C22.9402 5.69088 22.7226 5.62489 22.5001 5.62494H19.8582C19.4141 4.94146 18.808 4.37838 18.0937 3.98582C17.3794 3.59326 16.5791 3.38341 15.7641 3.37494C15.1282 3.3664 14.4971 3.48518 13.9078 3.72427C13.3185 3.96336 12.783 4.31794 12.3329 4.76713C11.87 5.22115 11.5025 5.76316 11.2522 6.36127C11.0018 6.95939 10.8736 7.60154 10.8751 8.24994V8.32307C7.42225 7.23838 4.65194 4.48869 4.62194 4.45775C4.47099 4.30563 4.27973 4.19979 4.07066 4.15268C3.8616 4.10558 3.64343 4.11916 3.44182 4.19185C3.24022 4.26453 3.06357 4.39329 2.93266 4.56296C2.80175 4.73264 2.72203 4.93618 2.70288 5.14963C2.11132 11.7281 5.01382 15.2549 6.646 16.6921C5.28757 18.0778 3.37507 18.8137 3.35632 18.8212C3.1973 18.8804 3.05374 18.9748 2.93636 19.0973C2.81899 19.2198 2.73086 19.3673 2.67856 19.5287C2.62626 19.6902 2.61114 19.8613 2.63435 20.0294C2.65756 20.1975 2.71848 20.3581 2.81257 20.4993C3.00007 20.7703 4.07257 22.1249 7.50007 22.1249C14.2735 22.1249 19.9407 16.9443 20.5876 10.2534L23.2951 7.54588C23.4526 7.38862 23.5599 7.18816 23.6035 6.96988C23.647 6.7516 23.6248 6.5253 23.5398 6.31963ZM18.7051 8.95494C18.5111 9.14804 18.3947 9.40554 18.3779 9.67869C18.0132 15.3965 13.2357 19.8749 7.50007 19.8749C7.10851 19.8772 6.71727 19.8525 6.32913 19.8009C7.31257 19.1765 8.41131 18.2878 9.18756 17.1243C9.27248 16.997 9.33051 16.8536 9.3581 16.703C9.3857 16.5525 9.38228 16.3979 9.34805 16.2487C9.31382 16.0995 9.24951 15.9588 9.15905 15.8354C9.06858 15.7119 8.95388 15.6082 8.82194 15.5306C8.81069 15.524 7.666 14.8284 6.62538 13.2412C5.58475 11.654 5.00725 9.77244 4.89475 7.63682C6.5035 8.84994 9.00006 10.3865 11.8126 10.8599C11.9739 10.8872 12.1393 10.879 12.2972 10.8357C12.455 10.7925 12.6016 10.7154 12.7265 10.6097C12.8515 10.504 12.9519 10.3723 13.0207 10.2238C13.0896 10.0753 13.1252 9.91361 13.1251 9.74994V8.24994C13.1243 7.89957 13.1936 7.55258 13.329 7.22943C13.4644 6.90628 13.6632 6.61351 13.9135 6.36838C14.1526 6.12922 14.437 5.94026 14.7502 5.81259C15.0633 5.68493 15.3988 5.62112 15.7369 5.62494C16.2482 5.63179 16.747 5.78349 17.1754 6.06244C17.6039 6.34139 17.9444 6.73615 18.1576 7.20088C18.2453 7.40135 18.3896 7.5719 18.5727 7.69162C18.7559 7.81135 18.97 7.87505 19.1888 7.87494H19.7813L18.7051 8.95494Z" fill="#1A1A1A"/>
</svg>
